<?xml version="1.0" encoding="utf-8"?>
<svg viewBox="0 0 525 88" fill="none" xmlns="http://www.w3.org/2000/svg">
  <text style="fill: rgb(51, 51, 51); font-family: Inter; font-size: 66px; font-weight: 700; white-space: pre;" x="101.573" y="67.693" transform="matrix(0.9999999999999999, 0, 0, 0.9999999999999999, -2.842170943040401e-14, -1.4210854715202004e-14)">CvSU Alumni</text>
  <path d="M 50.065 10.192 L 85.114 45.241 C 87.437 47.564 87.437 51.331 85.114 53.653 L 68.899 69.87 C 65.944 73.322 65.007 73.896 59.808 73.692 L 31.507 73.549 C 25.663 73.295 25.2 72.65 21.738 68.788 L 6.604 53.653 C 4.281 51.331 4.281 47.564 6.604 45.241 L 41.653 10.192 C 43.976 7.869 47.743 7.869 50.065 10.192 Z" style="fill: rgb(51, 51, 51);" transform="matrix(0.9999999999999999, 0, 0, 0.9999999999999999, -2.842170943040401e-14, -1.4210854715202004e-14)"/>
</svg>